<svg xmlns="http://www.w3.org/2000/svg" xmlns:xlink="http://www.w3.org/1999/xlink" width="1497" height="338" version="1.1" style="display: block; margin-left: auto; margin-right: auto;"><rect id="backgroundrect" width="100%" height="100%" x="0" y="0" fill="none" stroke="none"/>
<defs>

<style type="text/css"><![CDATA[

.g0_2{
fill: #4D008C;
}
.g1_2{
fill: #869ABE;
}


]]></style>

</defs>






















































<g class="currentLayer" style=""><title>Layer 1</title><path d="M1.2705494208814505e-21,1.1368683729809956e-13 L1.2705494208814505e-21,337.98707245694834 L1497.000086326883,337.98707245694834 L1497.000086326883,1.1368683729809956e-13 z" fill="transparent" stroke="none" id="svg_1" class=""/><path d="M171.23335680569187,337.05368959946566 c-5.8,0 -10.3,-4.6 -10.3,-10.5 c0,-5.8 4.5,-10.4 10.3,-10.4 c5.9,0 10.6,4.7 10.6,10.4 c0,5.8 -4.7,10.5 -10.6,10.5 z" class="g0_2" id="svg_2"/><path d="M245.8333568056919,313.95368959946563 c4.6,0 8.4,-3.7 8.4,-8.3 c0,-4.7 -3.8,-8.4 -8.4,-8.4 c-4.7,0 -8.3,3.7 -8.3,8.4 c0,4.6 3.6,8.3 8.3,8.3 z" class="g0_2" id="svg_3"/><path d="M301.5333568056919,261.45368959946563 c5.8,0 10.5,-4.6 10.5,-10.4 c0,-5.8 -4.7,-10.5 -10.5,-10.5 c-5.9,0 -10.4,4.6 -10.4,10.5 c0,5.8 4.5,10.4 10.4,10.4 z" class="g0_2" id="svg_4"/><path d="M321.3333568056919,187.85368959946567 c7,0 12.6,-5.6 12.6,-12.5 c0,-7 -5.6,-12.6 -12.6,-12.6 c-7,0 -12.5,5.5 -12.5,12.6 c0,7 5.5,12.5 12.5,12.5 z" class="g0_2" id="svg_5"/><path d="M304.73335680569187,113.85368959946567 c8.1,0 14.7,-6.5 14.7,-14.6 c0,-8.1 -6.6,-14.7 -14.7,-14.7 c-8.2,0 -14.6,6.5 -14.6,14.7 c0,8.2 6.4,14.6 14.6,14.6 z" class="g0_2" id="svg_6"/><path d="M245.73335680569187,60.95368959946569 c9.3,0 16.9,-7.4 16.9,-16.7 c0,-9.2 -7.6,-16.7 -16.9,-16.7 c-9.3,0 -16.6,7.3 -16.6,16.7 c0,9.4 7.3,16.7 16.6,16.7 z" class="g0_2" id="svg_7"/><path d="M171.23335680569187,41.35368959946567 c10.4,0 18.9,-8.4 18.9,-18.8 c0,-10.4 -8.5,-18.8 -18.9,-18.8 c-10.5,0 -18.7,8.3 -18.7,18.8 c0,10.6 8.2,18.8 18.7,18.8 z" class="g0_2" id="svg_8"/><path d="M93.03335680569188,67.2536895994657 c12.8,0 23.2,-10.3 23.2,-23 c0,-12.7 -10.4,-23 -23.2,-23 c-12.8,0 -22.8,10.1 -22.8,23 c0,12.9 10,23 22.8,23 z" class="g0_2" id="svg_9"/><path d="M36.6333568056919,118.05368959946566 c10.5,0 19,-8.4 19,-18.8 c0,-10.4 -8.5,-18.8 -19,-18.8 c-10.5,0 -18.7,8.2 -18.7,18.8 c0,10.6 8.2,18.8 18.7,18.8 z" class="g0_2" id="svg_10"/><path d="M17.833356805691892,192.05368959946566 c9.3,0 16.9,-7.5 16.9,-16.7 c0,-9.3 -7.6,-16.8 -16.9,-16.8 c-9.3,0 -16.6,7.4 -16.6,16.8 c0,9.3 7.3,16.7 16.6,16.7 z" class="g0_2" id="svg_11"/><path d="M39.03335680569188,265.3536895994657 c8.2,0 14.8,-6.5 14.8,-14.6 c0,-8.1 -6.6,-14.7 -14.8,-14.7 c-8.1,0 -14.5,6.5 -14.5,14.7 c0,8.2 6.4,14.6 14.5,14.6 z" class="g0_2" id="svg_12"/><path d="M93.1333568056919,318.7536895994657 c7,0 12.6,-5.6 12.6,-12.5 c0,-7 -5.6,-12.6 -12.6,-12.6 c-7,0 -12.5,5.5 -12.5,12.6 c0,7 5.5,12.5 12.5,12.5 z" class="g0_2" id="svg_13"/><path d="M197.43335680569191,229.55368959946566 c5.8,0 10.6,-4.7 10.6,-10.4 c0,-5.8 -4.8,-10.5 -10.6,-10.5 c-5.8,0 -10.4,4.6 -10.4,10.5 c0,5.8 4.6,10.4 10.4,10.4 z" class="g0_2" id="svg_14"/><path d="M223.03335680569188,187.65368959946568 c6.9,0 12.6,-5.7 12.6,-12.6 c0,-6.9 -5.7,-12.5 -12.6,-12.5 c-7,0 -12.5,5.5 -12.5,12.5 c0,7.1 5.5,12.6 12.5,12.6 z" class="g0_2" id="svg_15"/><path d="M197.43335680569191,145.35368959946567 c8.1,0 14.8,-6.5 14.8,-14.6 c0,-8.1 -6.7,-14.7 -14.8,-14.7 c-8.1,0 -14.5,6.5 -14.5,14.7 c0,8.2 6.4,14.6 14.5,14.6 z" class="g0_2" id="svg_16"/><path d="M146.23335680569187,147.4536895994657 c9.3,0 16.8,-7.5 16.8,-16.7 c0,-9.2 -7.5,-16.8 -16.8,-16.8 c-9.4,0 -16.7,7.4 -16.7,16.8 c0,9.4 7.3,16.7 16.7,16.7 z" class="g0_2" id="svg_17"/><path d="M171.23335680569187,189.7536895994657 c8.1,0 14.8,-6.6 14.8,-14.7 c0,-8 -6.7,-14.6 -14.8,-14.6 c-8.1,0 -14.5,6.4 -14.5,14.6 c0,8.2 6.4,14.7 14.5,14.7 z" class="g0_2" id="svg_18"/><path d="M121.1333568056919,189.7536895994657 c8.1,0 14.7,-6.6 14.7,-14.7 c0,-8 -6.6,-14.6 -14.7,-14.6 c-8.2,0 -14.5,6.4 -14.5,14.6 c0,8.2 6.3,14.7 14.5,14.7 z" class="g0_2" id="svg_19"/><path d="M146.73335680569187,232.15368959946568 c6.9,0 12.6,-5.6 12.6,-12.5 c0,-7 -5.7,-12.6 -12.6,-12.6 c-7,0 -12.5,5.5 -12.5,12.6 c0,7 5.5,12.5 12.5,12.5 z" class="g0_2" id="svg_20"/><path d="M144.6333568056919,282.55368959946566 c5.8,0 10.5,-4.7 10.5,-10.5 c0,-5.7 -4.7,-10.4 -10.5,-10.4 c-5.8,0 -10.4,4.6 -10.4,10.4 c0,5.9 4.6,10.5 10.4,10.5 z" class="g0_2" id="svg_21"/><path d="M101.6333568056919,258.2536895994657 c7,0 12.6,-5.6 12.6,-12.5 c0,-6.9 -5.6,-12.6 -12.6,-12.6 c-7,0 -12.5,5.5 -12.5,12.6 c0,7 5.5,12.5 12.5,12.5 z" class="g0_2" id="svg_22"/><path d="M74.43335680569191,215.2536895994657 c8.1,0 14.8,-6.5 14.8,-14.6 c0,-8.1 -6.7,-14.7 -14.8,-14.7 c-8.1,0 -14.5,6.5 -14.5,14.7 c0,8.2 6.4,14.6 14.5,14.6 z" class="g0_2" id="svg_23"/><path d="M74.43335680569191,165.2536895994657 c9.3,0 16.8,-7.5 16.8,-16.7 c0,-9.3 -7.5,-16.8 -16.8,-16.8 c-9.3,0 -16.6,7.4 -16.6,16.8 c0,9.3 7.3,16.7 16.6,16.7 z" class="g0_2" id="svg_24"/><path d="M98.53335680569188,123.2536895994657 c10.5,0 19,-8.4 19,-18.8 c0,-10.4 -8.5,-18.9 -19,-18.9 c-10.5,0 -18.7,8.3 -18.7,18.9 c0,10.5 8.2,18.8 18.7,18.8 z" class="g0_2" id="svg_25"/><path d="M144.8333568056919,97.85368959946567 c10.4,0 18.9,-8.5 18.9,-18.8 c0,-10.4 -8.5,-18.9 -18.9,-18.9 c-10.5,0 -18.7,8.3 -18.7,18.9 c0,10.5 8.2,18.8 18.7,18.8 z" class="g0_2" id="svg_26"/><path d="M197.53335680569188,95.7536895994657 c9.3,0 16.9,-7.5 16.9,-16.7 c0,-9.3 -7.6,-16.8 -16.9,-16.8 c-9.3,0 -16.6,7.4 -16.6,16.8 c0,9.3 7.3,16.7 16.6,16.7 z" class="g0_2" id="svg_27"/><path d="M244.93335680569191,118.85368959946567 c8.1,0 14.7,-6.6 14.7,-14.7 c0,-8 -6.6,-14.6 -14.7,-14.6 c-8.2,0 -14.5,6.4 -14.5,14.6 c0,8.2 6.3,14.7 14.5,14.7 z" class="g0_2" id="svg_28"/><path d="M267.6333568056919,160.7536895994657 c7,0 12.7,-5.6 12.7,-12.5 C280.3333568056919,141.35368959946567 274.6333568056919,135.65368959946568 267.6333568056919,135.65368959946568 c-7,0 -12.4,5.5 -12.4,12.6 c0,7 5.4,12.5 12.4,12.5 z" class="g0_2" id="svg_29"/><path d="M267.1333568056919,211.05368959946566 c5.8,0 10.6,-4.6 10.6,-10.4 c0,-5.8 -4.8,-10.5 -10.6,-10.5 c-5.8,0 -10.4,4.6 -10.4,10.5 c0,5.8 4.6,10.4 10.4,10.4 z" class="g0_2" id="svg_30"/><path d="M241.43335680569191,254.05368959946566 c4.6,0 8.4,-3.7 8.4,-8.3 c0,-4.6 -3.8,-8.4 -8.4,-8.4 c-4.7,0 -8.3,3.7 -8.3,8.4 c0,4.7 3.6,8.3 8.3,8.3 z" class="g0_2" id="svg_31"/><path d="M197.6333568056919,280.45368959946563 c4.6,0 8.4,-3.7 8.4,-8.4 c0,-4.6 -3.8,-8.3 -8.4,-8.3 c-4.7,0 -8.3,3.6 -8.3,8.3 c0,4.7 3.6,8.4 8.3,8.4 z" class="g0_2" id="svg_32"/><path d="M400.63335680569185,128.55368959946566 c0,-39.6 29.8,-70.8 71.3,-70.8 c25,0 47.2,12.7 58.7,32.6 L511.13335680569185,101.65368959946568 c-7.2,-13.5 -22,-22.1 -39.2,-22.1 c-29.4,0 -48.9,20.9 -48.9,49 c0,28 19.5,48.9 48.9,48.9 c17.2,0 32.2,-8.6 39.2,-22.1 l19.5,11.2 c-11.3,19.8 -33.5,32.7 -58.7,32.7 c-41.5,0 -71.3,-31.2 -71.3,-70.7 M627.1333568056918,99.2536895994657 l-49.9,61.8 V99.2536895994657 H556.5333568056919 v97.5 h16.2 l49.9,-62 v62 h20.6 V99.2536895994657 zm130.9,48.7 c0,18.2 -13.2,31.2 -30.8,31.2 c-17.5,0 -30.8,-13 -30.8,-31.2 c0,-18.1 13.3,-31.1 30.8,-31.1 c17.6,0 30.8,13 30.8,31.1 m21.1,0 c0,-28.8 -22,-51.2 -48.6,-51.2 c-15.2,0 -26.6,6.2 -34.1,16.6 V99.2536895994657 h-21 V235.65368959946568 h21 V182.85368959946567 c7.5,10.2 18.9,16.4 34.1,16.4 c26.6,0 48.6,-22.2 48.6,-51.3 m97.4,-48.7 l-49.9,61.8 V99.2536895994657 H806.0333568056919 v97.5 h16.2 l49.8,-62 v62 h20.7 V99.2536895994657 zm114,0 l-24.9,71 l-29.6,-71 h-22.4 l40.9,96.7 l-0.6000000000000002,1.4 c-4.9,13 -12.3,19.4 -25.9,18.7 V235.65368959946568 c21.4,1.4 38.4,-11.1 47.5,-35.8 l37.5,-100.6 zm34.2,48.7 c0,28.9 22,51.3 51.4,51.3 c19.1,0 35.7,-9.9 43.9,-25.3 l-18.2,-10.4 c-4.6,9 -14.2,15 -25.9,15 c-17.1,0 -30.2,-13 -30.2,-30.6 c0,-17.5 13.1,-30.6 30.2,-30.6 c11.7,0 21.3,5.9 25.5,15.1 l18.2,-10.6 c-7.8,-15.2 -24.4,-25.1 -43.5,-25.1 c-29.4,0 -51.4,22.2 -51.4,51.2 z" class="g0_2" id="svg_33"/><path d="M407.8333568056919,271.6536895994657 c0,-17.6 14,-31.5 31.5,-31.5 c17.6,0 31.4,13.9 31.4,31.5 c0,17.6 -13.8,31.4 -31.4,31.4 c-17.5,0 -31.5,-13.8 -31.5,-31.4 m53,0 c0,-12.5 -9.4,-21.8 -21.5,-21.8 c-12.2,0 -21.5,9.3 -21.5,21.8 c0,12.4 9.3,21.7 21.5,21.7 c12.1,0 21.5,-9.3 21.5,-21.7 z" class="g1_2" id="svg_34"/><path d="M480.3333568056919,280.1536895994657 c0,-14 2.6,-21.2 16.6,-28 c9.1,-4.4 14.7,-5.7 16.4,-12.4 l7.7,4.4 c-1.6,8 -8.8,10.8 -17.6,14.4 c-7.9,3.1 -10.7,6 -12.1,10.6 c3.8,-4.3 9.4,-5.9 14.2,-5.9 c9.7,0 18.9,7.5 18.9,19.6 c0,11.6 -8.7,20.2 -21.6,20.2 c-13.4,0 -22.5,-9.6 -22.5,-22.9 m34.8,2.7 c0,-6.8 -5,-11.7 -12.3,-11.7 c-6,0 -12.7,3.9 -12.7,11.2 c0,7 5.6,12 12.6,12 c7.3,0 12.4,-4.9 12.4,-11.5 z" class="g1_2" id="svg_35"/><path d="M581.4333568056919,280.2536895994657 c0,13 -9.8,22.8 -21.6,22.8 c-6.8,0 -11.9,-2.7 -15.2,-7.3 v23.5 H535.3333568056919 V258.6536895994657 h9.3 v6.2 c3.3,-4.6 8.4,-7.3 15.2,-7.3 c11.8,0 21.6,9.9 21.6,22.7 m-9.4,0 c0,-8 -5.9,-13.8 -13.7,-13.8 c-7.8,0 -13.7,5.8 -13.7,13.8 c0,8.1 5.9,13.9 13.7,13.9 c7.8,0 13.7,-5.8 13.7,-13.9 z" class="g1_2" id="svg_36"/><path d="M637.0333568056919,258.6536895994657 v43.3 h-9.4 v-6.2 c-3.3,4.6 -8.4,7.3 -15.1,7.3 c-11.8,0 -21.6,-9.9 -21.6,-22.8 c0,-12.9 9.8,-22.7 21.6,-22.7 c6.7,0 11.8,2.7 15.1,7.2 V258.6536895994657 zm-9.4,21.6 c0,-8 -5.9,-13.8 -13.7,-13.8 c-7.8,0 -13.6,5.8 -13.6,13.8 c0,8.1 5.8,13.9 13.6,13.9 c7.8,0 13.7,-5.8 13.7,-13.9 z" class="g1_2" id="svg_37"/><path d="M682.6333568056918,290.05368959946566 c0,7 -5.8,13 -17,13 c-9.4,0 -14.9,-4 -17.7,-10.4 l7.6,-4.5 c1.4,3.9 4.6,6.5 10.2,6.5 c5,0 7.8,-2.3 7.8,-5.5 c0,-3 -2.3,-5 -6.3,-5 h-6.1 v-8.2 h4.6 c3.9,0 6,-1.9 6,-5 c0,-3.1 -2.6,-5.1 -6.6,-5.1 c-4.2,0 -7.3,1.8 -9,5.7 l-7.7,-4.3 c3.1,-6.3 8.8,-9.7 16.5,-9.7 c10,0 15.8,5.9 15.8,12.6 c0,4.1 -1.6,7.5 -5,9.6 c4.4,2 6.9,5.8 6.9,10.3 z" class="g1_2" id="svg_38"/><path d="M691.3333568056919,280.2536895994657 c0,-12.9 10.2,-22.7 22.9,-22.7 c12.7,0 22.9,9.8 22.9,22.7 c0,12.9 -10.2,22.8 -22.9,22.8 c-12.7,0 -22.9,-9.9 -22.9,-22.8 m36.4,0 c0,-7.8 -5.9,-13.7 -13.5,-13.7 c-7.6,0 -13.5,5.9 -13.5,13.7 c0,7.9 5.9,13.7 13.5,13.7 c7.6,0 13.5,-5.8 13.5,-13.7 z" class="g1_2" id="svg_39"/><path d="M785.4333568056919,289.6536895994657 c0,6.9 -4.8,12.3 -14.2,12.3 H749.0333568056919 V258.6536895994657 h20.5 c9.1,0 14,5.1 14,11.9 c0,3.9 -1.5,7.1 -4.5,9.1 c4.2,1.9 6.4,5.5 6.4,10 M757.9333568056919,266.55368959946566 v9.7 h10.9 c3.7,0 5.7,-1.7000000000000002 5.7,-4.9 c0,-3.1 -2.1,-4.8 -5.7,-4.8 zM776.2333568056919,288.6536895994657 c0,-3 -2.1,-4.7 -5.9,-4.7 H757.9333568056919 v9.9 H770.3333568056919 c3.8,0 5.9,-1.9 5.9,-5.2 z" class="g1_2" id="svg_40"/><path d="M840.233356805692,258.6536895994657 v43.3 h-9.4 v-6.2 c-3.3,4.6 -8.4,7.3 -15.2,7.3 c-11.7,0 -21.5,-9.9 -21.5,-22.8 c0,-12.9 9.8,-22.7 21.5,-22.7 c6.8,0 11.9,2.7 15.2,7.2 V258.6536895994657 zm-9.4,21.6 c0,-8 -5.9,-13.8 -13.7,-13.8 c-7.8,0 -13.7,5.8 -13.7,13.8 c0,8.1 5.9,13.9 13.7,13.9 c7.8,0 13.7,-5.8 13.7,-13.9 z" class="g1_2" id="svg_41"/><path d="M887.6333568056918,267.6536895994657 h-14.1 v34.3 h-9.3 V267.6536895994657 h-14.2 v-9 h37.6 z" class="g1_2" id="svg_42"/><path d="M916.9333568056918,294.45368959946563 c5.2,0 9.1,-2.3 11.2,-5.3 l7.7,4.5 c-4,5.9 -10.5,9.4 -19,9.4 c-14.3,0 -23.5,-9.8 -23.5,-22.8 c0,-12.8 9.2,-22.8 22.8,-22.8 c13,0 21.8,10.4 21.8,22.9 c0,1.3 -0.2,2.7 -0.4,3.9 h-34.4 c1.4,6.8 6.9,10.2 13.8,10.2 M928.4333568056918,276.6536895994657 c-1.3,-7.5 -6.7,-10.7 -12.3,-10.7 c-7.1,0 -11.8,4.2 -13.1,10.7 z" class="g1_2" id="svg_43"/><path d="M984.4333568056918,301.95368959946563 h-9.3 V267.6536895994657 h-14.5 v16.1 c0,14.2 -6.7,19.2 -17.3,18.2 v-8.8 c5.1,0.9 7.9,-1.7000000000000002 7.9,-9.8 V258.6536895994657 h33.2 z" class="g1_2" id="svg_44"/><path d="M1033.533356805692,287.6536895994657 c0,8.5 -6.6,14.3 -15.8,14.3 h-18.9 V258.6536895994657 h9.4 v14.7 h9.5 c9.2,0 15.8,5.7 15.8,14.3 m-9.2,0 c0,-3.6 -2.9,-5.9 -6.5,-5.9 h-9.6 v11.8 h9.6 c3.6,0 6.5,-2.3 6.5,-5.9 z" class="g1_2" id="svg_45"/><path d="M1083.1333568056918,258.6536895994657 v43.3 h-9.4 V284.7536895994657 h-19.8 v17.2 h-9.3 V258.6536895994657 h9.3 v17.2 h19.8 V258.6536895994657 z" class="g1_2" id="svg_46"/><path d="M1132.1333568056918,287.6536895994657 c0,8.5 -6.6,14.3 -15.8,14.3 h-18.9 V258.6536895994657 h9.4 v14.7 h9.5 c9.2,0 15.8,5.7 15.8,14.3 m-9.2,0 c0,-3.6 -2.9,-5.9 -6.5,-5.9 h-9.6 v11.8 h9.6 c3.6,0 6.5,-2.3 6.5,-5.9 m23.7,14.3 H1137.333356805692 V258.6536895994657 h9.3 v43.3 z" class="g1_2" id="svg_47"/><path d="M1199.533356805692,258.6536895994657 v43.3 H1190.333356805692 V274.3536895994657 l-22.2,27.6 h-7.2 V258.6536895994657 h9.2 v27.4 L1192.333356805692,258.6536895994657 zm-31.5,-14.2 H1192.333356805692 v8.1 h-24.3 v-8.1 z" class="g1_2" id="svg_48"/><path d="M1283.233356805692,293.1536895994657 v20.4 h-9.1 V301.95368959946563 h-35.2 V258.6536895994657 h9.3 v34.5 h18.6 V258.6536895994657 h9.3 v34.5 z" class="g1_2" id="svg_49"/><path d="M1313.833356805692,294.45368959946563 c5.2,0 9.1,-2.3 11.2,-5.3 l7.7,4.5 c-4,5.9 -10.5,9.4 -19,9.4 c-14.2,0 -23.5,-9.8 -23.5,-22.8 c0,-12.8 9.3,-22.8 22.9,-22.8 c12.9,0 21.7,10.4 21.7,22.9 c0,1.3 -0.2,2.7 -0.3000000000000001,3.9 h-34.5 c1.4,6.8 6.9,10.2 13.8,10.2 M1325.4333568056918,276.6536895994657 c-1.3,-7.5 -6.8,-10.7 -12.4,-10.7 c-7,0 -11.8,4.2 -13.1,10.7 z" class="g1_2" id="svg_50"/><path d="M1385.1333568056918,258.6536895994657 v43.3 h-9.4 V284.7536895994657 h-19.8 v17.2 h-9.4 V258.6536895994657 h9.4 v17.2 h19.8 V258.6536895994657 z" class="g1_2" id="svg_51"/><path d="M1432.4333568056918,267.6536895994657 H1418.333356805692 v34.3 h-9.3 V267.6536895994657 h-14.2 v-9 h37.6 z" class="g1_2" id="svg_52"/><path d="M1488.333356805692,280.2536895994657 c0,13 -9.8,22.8 -21.5,22.8 c-6.8,0 -11.9,-2.7 -15.2,-7.3 v23.5 h-9.4 V258.6536895994657 h9.4 v6.2 c3.3,-4.6 8.4,-7.3 15.2,-7.3 c11.7,0 21.5,9.9 21.5,22.7 m-9.3,0 c0,-8 -5.9,-13.8 -13.7,-13.8 c-7.8,0 -13.7,5.8 -13.7,13.8 c0,8.1 5.9,13.9 13.7,13.9 c7.8,0 13.7,-5.8 13.7,-13.9 z" class="g1_2" id="svg_53"/></g></svg>