<svg xmlns="http://www.w3.org/2000/svg" xmlns:xlink="http://www.w3.org/1999/xlink" width="918" height="772" version="1.1" style="display: block;margin-left: auto;margin-right: auto;"><rect id="backgroundrect" width="100%" height="100%" x="0" y="0" fill="none" stroke="none" style="" class=""/>
<defs>

<style type="text/css"><![CDATA[

.g0_1{
fill: #4D008C;
}
.g1_1{
fill: #869ABE;
}


]]></style>

</defs>



































<g class="currentLayer" style=""><title>Layer 1</title><path d="M0.000003175600795657374,1.1690545420606213e-7 L0.000003175600795657374,771.4999853315475 L917.9406230786537,771.4999853315475 L917.9406230786537,1.1690545420606213e-7 z" fill="transparent" stroke="none" id="svg_1" class=""/><path d="M5.007269287109352,541.9999771118164 c0,49.5 37.3,88.5 89.2,88.5 c31.5,0 59.3,-16.1 73.4,-41 L143.2072692871094,575.5999771118164 c-8.7,16.9 -27.5,27.6 -49,27.6 c-36.8,0 -61.2,-26.1 -61.2,-61.2 c0,-35.1 24.4,-61.2 61.2,-61.2 c21.5,0 40,10.7 49,27.5 L167.60726928710938,494.19997711181645 C153.2072692871094,469.29997711181636 125.40726928710933,453.4999771118164 94.2072692871094,453.4999771118164 c-51.9,0 -89.2,39 -89.2,88.5 M308.6072692871094,505.3999771118164 V627.2999771118164 H282.7072692871094 V549.7999771118164 l-62.4,77.5 H200.10726928710938 V505.3999771118164 h25.8 v77.3 l62.4,-77.3 zm143.6,61 c0,-22.7 -16.6,-39 -38.5,-39 c-22,0 -38.6,16.3 -38.6,39 c0,22.6 16.6,39 38.6,39 c21.9,0 38.5,-16.4 38.5,-39 m26.3,0 c0,36.3 -27.5,64.1 -60.7,64.1 c-19,0 -33.4,-7.8 -42.7,-20.5 v66.1 H348.8072692871094 V505.3999771118164 h26.3 V522.9999771118164 c9.3,-13 23.7,-20.8 42.7,-20.8 c33.2,0 60.7,28.1 60.7,64.2 m142.2,-61 V627.2999771118164 h-25.9 V549.7999771118164 l-62.4,77.5 H512.2072692871094 V505.3999771118164 h25.8 v77.3 l62.4,-77.3 zm150.4,0 l-46.8,125.8 c-11.4,31 -32.7,46.6 -59.5,44.9 V651.4999771118164 c17.1,0.9 26.4,-7.1 32.4,-23.4 l0.8,-1.7000000000000002 l-51.2,-121 h28 l37.1,88.8 l31.2,-88.8 zm14.7,61 c0,-36.4 27.5,-64.2 64.3,-64.2 c23.9,0 44.7,12.5 54.4,31.5 l-22.7,13.2 c-5.3,-11.5 -17.3,-18.8 -31.9,-18.8 c-21.5,0 -37.8,16.3 -37.8,38.3 c0,21.9 16.3,38.3 37.8,38.3 c14.6,0 26.6,-7.6 32.4,-18.8 l22.7,12.9 c-10.2,19.3 -31,31.7 -54.9,31.7 c-36.8,0 -64.3,-28 -64.3,-64.1 z" class="g0_1" id="svg_2"/><path d="M903.5072692871095,733.7999771118164 c0,10.8 -8.1,19 -17.9,19 c-5.7,0 -9.9,-2.3 -12.7,-6.1 v19.6 h-7.8 V715.6999771118165 h7.8 V720.9999771118164 c2.8,-3.9 7,-6.2 12.7,-6.2 c9.8,0 17.9,8.3 17.9,19 m-7.8,0 c0,-6.7 -4.9,-11.6 -11.4,-11.6 c-6.5,0 -11.4,4.9 -11.4,11.6 c0,6.7 4.9,11.6 11.4,11.6 c6.5,0 11.4,-4.9 11.4,-11.6 m-38.7,-10.5 h-11.8 v28.6 h-7.8 V723.2999771118164 H825.6072692871094 v-7.6 h31.4 zm-39.5,-7.6 v36.2 h-7.8 V737.4999771118164 h-16.6 v14.4 h-7.8 V715.6999771118165 h7.8 v14.4 h16.6 V715.6999771118165 zm-59.4,29.9 c4.4,0 7.6,-1.9 9.3,-4.4 l6.5,3.7 c-3.4,4.9 -8.8,7.9 -15.8,7.9 c-12,0 -19.7,-8.2 -19.7,-19 c0,-10.7 7.7,-19 19.1,-19 c10.7,0 18.1,8.7 18.1,19.1 c0,1.1 -0.1,2.2 -0.3000000000000002,3.2 H746.6072692871094 c1.2,5.7 5.7,8.5 11.5,8.5 m9.6,-14.8 c-1.1,-6.2 -5.6,-8.9 -10.3,-8.9 c-5.8,0 -9.8,3.4 -10.9,8.9 zM732.6072692871094,744.4999771118164 v17 h-7.6 v-9.6 h-29.3 V715.6999771118165 h7.8 v28.8 h15.4 V715.6999771118165 h7.8 v28.8 zm-69.8,-28.8 v36.2 h-7.6 v-23 l-18.5,23 h-6 V715.6999771118165 h7.7 v22.9 l18.4,-22.9 zM636.6072692871094,703.8999771118164 h20.2 v6.8 H636.6072692871094 v-6.8 zm-30,36 c0,7.1 -5.4,12 -13.1,12 h-15.7 V715.6999771118165 h7.8 V727.9999771118164 h7.9 c7.7,0 13.1,4.8 13.1,11.9 m-7.6,0 c0,-3 -2.4,-4.9 -5.4,-4.9 h-8 v9.8 h8 c3,0 5.4,-1.9 5.4,-4.9 m19.8,12 h-7.8 V715.6999771118165 h7.8 v36.2 zm-52.9,-36.2 v36.2 h-7.8 V737.4999771118164 h-16.6 v14.4 h-7.8 V715.6999771118165 h7.8 v14.4 h16.6 V715.6999771118165 zm-41.4,24.2 c0,7.1 -5.5,12 -13.1,12 H495.6072692871094 V715.6999771118165 h7.8 V727.9999771118164 h8 c7.6,0 13.1,4.8 13.1,11.9 m-7.7,0 c0,-3 -2.3,-4.9 -5.4,-4.9 h-8 v9.8 h8 c3.1,0 5.4,-1.9 5.4,-4.9 m-33.2,12 h-7.8 V723.2999771118164 h-12 v13.4 c0,11.8 -5.6,16 -14.5,15.2 v-7.3 c4.3,0.7000000000000004 6.7,-1.5 6.7,-8.3 V715.6999771118165 H483.6072692871094 zm-56.2,-6.3 c4.3,0 7.6,-1.9 9.3,-4.4 l6.4,3.7 c-3.3,4.9 -8.7,7.9 -15.8,7.9 c-11.9,0 -19.6,-8.2 -19.6,-19 c0,-10.7 7.7,-19 19,-19 c10.8,0 18.2,8.7 18.2,19.1 c0,1.1 -0.2,2.2 -0.3000000000000002,3.2 H415.8072692871094 c1.3,5.7 5.8,8.5 11.6,8.5 m9.6,-14.8 c-1.1,-6.2 -5.6,-8.9 -10.3,-8.9 c-5.9,0 -9.9,3.4 -10.9,8.9 zm-34,-7.5 H391.2072692871094 v28.6 h-7.8 V723.2999771118164 H371.6072692871094 v-7.6 h31.4 zm-39.6,-7.6 v36.2 H355.6072692871094 v-5.3 c-2.7,3.9 -7,6.2 -12.6,6.2 c-9.8,0 -18,-8.3 -18,-19 c0,-10.8 8.2,-19 18,-19 c5.6,0 9.9,2.3 12.6,6.1 v-5.2 zM355.6072692871094,733.7999771118164 c0,-6.7 -4.9,-11.6 -11.4,-11.6 c-6.5,0 -11.4,4.9 -11.4,11.6 c0,6.7 4.9,11.6 11.4,11.6 c6.5,0 11.4,-4.9 11.4,-11.6 m-37.8,7.8 c0,5.8 -4,10.3 -11.9,10.3 H287.50726928710935 V715.6999771118165 h17 c7.6,0 11.7,4.3 11.7,10 c0,3.3 -1.2,5.9 -3.8,7.6 c3.5,1.6 5.4,4.5 5.4,8.3 M294.90726928710933,722.3999771118164 v8 h9 c3.1,0 4.8,-1.4 4.8,-4 c0,-2.6 -1.7000000000000002,-4 -4.8,-4 zm15.2,18.4 c0,-2.5 -1.8,-4 -4.9,-4 H294.90726928710933 v8.3 h10.3 c3.1,0 4.9,-1.6 4.9,-4.3 m-70.7,-7 c0,-10.8 8.5,-19 19,-19 c10.6,0 19.1,8.2 19.1,19 c0,10.7 -8.5,19 -19.1,19 c-10.5,0 -19,-8.3 -19,-19 m30.3,0 c0,-6.6 -4.9,-11.4 -11.3,-11.4 c-6.3,0 -11.2,4.8 -11.2,11.4 c0,6.6 4.9,11.4 11.2,11.4 c6.4,0 11.3,-4.8 11.3,-11.4 M232.2072692871094,741.9999771118164 c0,5.7 -4.9,10.8 -14.3,10.8 c-7.8,0 -12.4,-3.4 -14.7,-8.7 l6.4,-3.7 c1.1,3.2 3.8,5.4 8.4,5.4 c4.2,0 6.5,-2 6.5,-4.6 c0,-2.5 -1.9,-4.1 -5.2,-4.1 h-5.1 v-6.9 h3.8 c3.3,0 5.1,-1.6 5.1,-4.2 c0,-2.5 -2.2,-4.3 -5.6,-4.3 c-3.5,0 -6.1,1.6 -7.5,4.8 L203.60726928710938,722.8999771118164 c2.6,-5.2 7.3,-8.1 13.8,-8.1 c8.3,0 13.2,5 13.2,10.6 c0,3.3 -1.4,6.2 -4.2,8 c3.7,1.6 5.8,4.8 5.8,8.6 M194.10726928710938,715.6999771118165 v36.2 h-7.8 v-5.3 c-2.7,3.9 -7,6.2 -12.6,6.2 c-9.8,0 -18,-8.3 -18,-19 c0,-10.8 8.2,-19 18,-19 c5.6,0 9.9,2.3 12.6,6.1 v-5.2 zm-7.8,18.1 c0,-6.7 -4.9,-11.6 -11.4,-11.6 c-6.5,0 -11.4,4.9 -11.4,11.6 c0,6.7 4.9,11.6 11.4,11.6 c6.5,0 11.4,-4.9 11.4,-11.6 m-38.5,0 c0,10.8 -8.2,19 -18,19 c-5.7,0 -9.9,-2.3 -12.7,-6.1 v19.6 h-7.8 V715.6999771118165 h7.8 V720.9999771118164 c2.8,-3.9 7,-6.2 12.7,-6.2 c9.8,0 18,8.3 18,19 m-7.8,0 c0,-6.7 -4.9,-11.6 -11.4,-11.6 c-6.5,0 -11.5,4.9 -11.5,11.6 c0,6.7 5,11.6 11.5,11.6 c6.5,0 11.4,-4.9 11.4,-11.6 m-76.5,-0.1 c0,-11.7 2.2,-17.7 13.9,-23.4 c7.5,-3.7 12.2,-4.7 13.7,-10.3 l6.3,3.7 c-1.3,6.6 -7.3,9 -14.6,12 c-6.6,2.6 -8.9,5 -10.1,8.8 c3.1,-3.5 7.8,-4.9 11.8,-4.9 c8.1,0 15.8,6.3 15.8,16.3 c0,9.7 -7.3,16.9 -18,16.9 c-11.1,0 -18.8,-8 -18.8,-19.1 m29,2.2 c0,-5.6 -4.1,-9.8 -10.2,-9.8 c-5,0 -10.6,3.4 -10.6,9.4 c0,5.9 4.7,10 10.5,10 c6.1,0 10.3,-4 10.3,-9.6 m-89.4,-9.3 c0,-14.7 11.7,-26.2 26.3,-26.2 c14.6,0 26.2,11.5 26.2,26.2 c0,14.6 -11.6,26.2 -26.2,26.2 c-14.6,0 -26.3,-11.6 -26.3,-26.2 m44.2,0 c0,-10.4 -7.8,-18.1 -17.9,-18.1 c-10.2,0 -17.9,7.7 -17.9,18.1 c0,10.4 7.7,18.1 17.9,18.1 c10.1,0 17.9,-7.7 17.9,-18.1 z" class="g1_1" id="svg_3"/><path d="M459.6072692871094,420.1999771118164 c-7.3,0 -13,-5.8 -13,-13.1 c0,-7.3 5.7,-13.1 13,-13.1 c7.2,0 13.2,5.9 13.2,13.1 c0,7.2 -6,13.1 -13.2,13.1 z" class="g0_1" id="svg_4"/><path d="M552.8072692871094,391.2999771118164 c5.8,0 10.6,-4.7 10.6,-10.4 c0,-5.8 -4.8,-10.5 -10.6,-10.5 c-5.8,0 -10.4,4.6 -10.4,10.5 c0,5.8 4.6,10.4 10.4,10.4 z" class="g0_1" id="svg_5"/><path d="M622.5072692871095,325.6999771118164 c7.3,0 13.2,-5.9 13.2,-13.1 c0,-7.2 -5.9,-13.1 -13.2,-13.1 c-7.3,0 -13,5.7 -13,13.1 c0,7.3 5.7,13.1 13,13.1 z" class="g0_1" id="svg_6"/><path d="M647.3072692871094,233.4999771118164 c8.7,0 15.8,-7 15.8,-15.7 c0,-8.6 -7.1,-15.7 -15.8,-15.7 c-8.7,0 -15.6,6.9 -15.6,15.7 c0,8.8 6.9,15.7 15.6,15.7 z" class="g0_1" id="svg_7"/><path d="M626.5072692871095,140.9999771118164 c10.2,0 18.5,-8.2 18.5,-18.3 c0,-10.1 -8.3,-18.4 -18.5,-18.4 c-10.2,0 -18.2,8.1 -18.2,18.4 c0,10.2 8,18.3 18.2,18.3 z" class="g0_1" id="svg_8"/><path d="M552.8072692871094,74.79997711181642 c11.6,0 21,-9.4 21,-20.9 c0,-11.6 -9.4,-21 -21,-21 c-11.7,0 -20.8,9.2 -20.8,21 c0,11.7 9.1,20.9 20.8,20.9 z" class="g0_1" id="svg_9"/><path d="M459.50726928710935,50.2999771118164 c13.1,0 23.7,-10.6 23.7,-23.5 c0,-13 -10.6,-23.6 -23.7,-23.6 c-13.1,0 -23.4,10.3 -23.4,23.6 c0,13.1 10.3,23.5 23.4,23.5 z" class="g0_1" id="svg_10"/><path d="M361.7072692871094,82.6999771118164 c16,0 29,-12.9 29,-28.8 c0,-15.9 -13,-28.8 -29,-28.8 c-16,0 -28.6,12.6 -28.6,28.8 c0,16.1 12.6,28.8 28.6,28.8 z" class="g0_1" id="svg_11"/><path d="M291.2072692871094,146.1999771118164 c13,0 23.7,-10.5 23.7,-23.5 c0,-13 -10.7,-23.6 -23.7,-23.6 c-13.2,0 -23.4,10.4 -23.4,23.6 c0,13.2 10.2,23.5 23.4,23.5 z" class="g0_1" id="svg_12"/><path d="M267.7072692871094,238.6999771118164 c11.6,0 21,-9.3 21,-20.9 c0,-11.5 -9.4,-20.9 -21,-20.9 c-11.7,0 -20.8,9.2 -20.8,20.9 c0,11.8 9.1,20.9 20.8,20.9 z" class="g0_1" id="svg_13"/><path d="M294.2072692871094,330.4999771118164 c10.2,0 18.4,-8.2 18.4,-18.3 c0,-10.1 -8.2,-18.3 -18.4,-18.3 c-10.2,0 -18.2,8 -18.2,18.3 c0,10.3 8,18.3 18.2,18.3 z" class="g0_1" id="svg_14"/><path d="M361.8072692871094,397.2999771118164 c8.7,0 15.8,-7 15.8,-15.7 c0,-8.6 -7.1,-15.7 -15.8,-15.7 c-8.7,0 -15.6,6.9 -15.6,15.7 c0,8.8 6.9,15.7 15.6,15.7 z" class="g0_1" id="svg_15"/><path d="M492.40726928710933,285.6999771118164 c7.2,0 13.1,-5.8 13.1,-13.1 c0,-7.2 -5.9,-13.1 -13.1,-13.1 c-7.3,0 -13,5.8 -13,13.1 c0,7.4 5.7,13.1 13,13.1 z" class="g0_1" id="svg_16"/><path d="M524.3072692871094,233.1999771118164 c8.7,0 15.8,-7 15.8,-15.6 c0,-8.7 -7.1,-15.8 -15.8,-15.8 c-8.7,0 -15.6,6.9 -15.6,15.8 c0,8.7 6.9,15.6 15.6,15.6 z" class="g0_1" id="svg_17"/><path d="M492.3072692871094,180.3999771118164 c10.2,0 18.5,-8.2 18.5,-18.3 c0,-10.1 -8.3,-18.4 -18.5,-18.4 c-10.2,0 -18.2,8.1 -18.2,18.4 c0,10.2 8,18.3 18.2,18.3 z" class="g0_1" id="svg_18"/><path d="M428.2072692871094,182.9999771118164 c11.6,0 21.1,-9.4 21.1,-20.9 c0,-11.6 -9.5,-21 -21.1,-21 c-11.7,0 -20.8,9.2 -20.8,21 c0,11.7 9.1,20.9 20.8,20.9 z" class="g0_1" id="svg_19"/><path d="M459.50726928710935,235.79997711181642 c10.2,0 18.5,-8.2 18.5,-18.2 c0,-10.2 -8.3,-18.4 -18.5,-18.4 c-10.1,0 -18.2,8.1 -18.2,18.4 c0,10.2 8.1,18.2 18.2,18.2 z" class="g0_1" id="svg_20"/><path d="M396.8072692871094,235.79997711181642 c10.2,0 18.5,-8.2 18.5,-18.2 c0,-10.2 -8.3,-18.4 -18.5,-18.4 c-10.2,0 -18.2,8.1 -18.2,18.4 c0,10.2 8,18.2 18.2,18.2 z" class="g0_1" id="svg_21"/><path d="M428.8072692871094,288.8999771118164 c8.8,0 15.9,-7 15.9,-15.6 c0,-8.7 -7.1,-15.8 -15.9,-15.8 c-8.7,0 -15.6,6.9 -15.6,15.8 c0,8.7 6.9,15.6 15.6,15.6 z" class="g0_1" id="svg_22"/><path d="M426.2072692871094,351.9999771118164 c7.3,0 13.2,-5.9 13.2,-13.1 c0,-7.2 -5.9,-13.1 -13.2,-13.1 c-7.3,0 -13,5.8 -13,13.1 c0,7.4 5.7,13.1 13,13.1 z" class="g0_1" id="svg_23"/><path d="M372.50726928710935,321.59997711181643 c8.7,0 15.8,-7 15.8,-15.6 c0,-8.7 -7.1,-15.8 -15.8,-15.8 c-8.8,0 -15.6,6.9 -15.6,15.8 c0,8.7 6.8,15.6 15.6,15.6 z" class="g0_1" id="svg_24"/><path d="M338.40726928710933,267.7999771118164 c10.2,0 18.5,-8.2 18.5,-18.3 c0,-10.1 -8.3,-18.3 -18.5,-18.3 c-10.2,0 -18.2,8 -18.2,18.3 c0,10.3 8,18.3 18.2,18.3 z" class="g0_1" id="svg_25"/><path d="M338.40726928710933,205.1999771118164 c11.6,0 21.1,-9.4 21.1,-20.9 c0,-11.6 -9.5,-21 -21.1,-21 c-11.6,0 -20.8,9.2 -20.8,21 c0,11.7 9.2,20.9 20.8,20.9 z" class="g0_1" id="svg_26"/><path d="M368.6072692871094,152.6999771118164 c13.1,0 23.7,-10.5 23.7,-23.5 c0,-13 -10.6,-23.6 -23.7,-23.6 c-13.1,0 -23.4,10.4 -23.4,23.6 c0,13.2 10.3,23.5 23.4,23.5 z" class="g0_1" id="svg_27"/><path d="M426.50726928710935,120.89997711181641 c13.1,0 23.7,-10.6 23.7,-23.5 c0,-13 -10.6,-23.6 -23.7,-23.6 c-13.2,0 -23.4,10.3 -23.4,23.6 c0,13.2 10.2,23.5 23.4,23.5 z" class="g0_1" id="svg_28"/><path d="M492.50726928710935,118.29997711181642 c11.6,0 21.1,-9.4 21.1,-20.9 c0,-11.6 -9.5,-21 -21.1,-21 c-11.7,0 -20.8,9.2 -20.8,21 c0,11.7 9.1,20.9 20.8,20.9 z" class="g0_1" id="svg_29"/><path d="M551.7072692871093,147.0999771118164 c10.2,0 18.5,-8.1 18.5,-18.2 c0,-10.2 -8.3,-18.4 -18.5,-18.4 c-10.2,0 -18.2,8.1 -18.2,18.4 c0,10.2 8,18.2 18.2,18.2 z" class="g0_1" id="svg_30"/><path d="M580.2072692871093,199.59997711181643 c8.7,0 15.8,-7 15.8,-15.6 c0,-8.7 -7.1,-15.8 -15.8,-15.8 c-8.8,0 -15.6,7 -15.6,15.8 c0,8.8 6.8,15.6 15.6,15.6 z" class="g0_1" id="svg_31"/><path d="M579.5072692871095,262.59997711181643 c7.3,0 13.2,-5.9 13.2,-13.1 c0,-7.2 -5.9,-13.1 -13.2,-13.1 c-7.2,0 -13,5.8 -13,13.1 c0,7.4 5.8,13.1 13,13.1 z" class="g0_1" id="svg_32"/><path d="M547.3072692871094,316.3999771118164 c5.8,0 10.6,-4.7 10.6,-10.5 c0,-5.7 -4.8,-10.4 -10.6,-10.4 c-5.8,0 -10.4,4.6 -10.4,10.4 c0,5.9 4.6,10.5 10.4,10.5 z" class="g0_1" id="svg_33"/><path d="M492.6072692871094,349.3999771118164 c5.8,0 10.5,-4.7 10.5,-10.5 c0,-5.8 -4.7,-10.5 -10.5,-10.5 c-5.9,0 -10.4,4.6 -10.4,10.5 c0,5.9 4.5,10.5 10.4,10.5 z" class="g0_1" id="svg_34"/></g></svg>