<svg xmlns="http://www.w3.org/2000/svg" width="21px" height="26px" viewBox="0 0 29.329 37.62">
    <g>
        <g>
            <path d="M14.673,31.851c-6.348-0.067-10.695-2.04-12.943-5.863C-2.685,18.48,2.505,6.19,4.539,1.97H0.987
			c-0.544,0-0.986-0.441-0.986-0.984S0.442,0,0.987,0H6.14c0.348,0,0.669,0.183,0.847,0.481C7.165,0.779,7.172,1.15,7.006,1.454
			C6.924,1.609-1.291,16.969,3.429,24.991c1.874,3.184,5.657,4.829,11.244,4.89c5.568-0.06,9.353-1.706,11.227-4.892
			c4.72-8.021-3.495-23.38-3.578-23.535c-0.166-0.305-0.158-0.675,0.019-0.973C22.519,0.183,22.841,0,23.188,0h5.154
			c0.544,0,0.986,0.442,0.986,0.985S28.886,1.97,28.342,1.97H24.79c2.034,4.22,7.224,16.509,2.811,24.017
			C25.351,29.81,21.002,31.782,14.673,31.851z"></path>
            <path d="M11.584,25.682c-0.545,0-0.986-0.441-0.986-0.985V1.192c0-0.544,0.441-0.985,0.986-0.985
			s0.986,0.441,0.986,0.985v23.504C12.57,25.24,12.129,25.682,11.584,25.682z"></path>
            <path d="M17.747,25.682c-0.545,0-0.986-0.441-0.986-0.985V1.192c0-0.544,0.441-0.985,0.986-0.985
			c0.545,0,0.986,0.441,0.986,0.985v23.504C18.733,25.24,18.292,25.682,17.747,25.682z"></path>
            <path d="M21.184,37.62H8.144c-0.544,0-0.986-0.441-0.986-0.985c0-0.544,0.441-0.984,0.986-0.984h13.04
			c0.544,0,0.986,0.441,0.986,0.984C22.17,37.179,21.729,37.62,21.184,37.62z"></path>
        </g>
    </g>
</svg>