<svg xmlns="http://www.w3.org/2000/svg" width="31px" height="26px" viewBox="0 0 46.224 37.967">
    <g>
        <g>
            <path id="svg_2" d="m23.08441,36.25442a0.94,0.94 0 0 1 -1,-0.94l0,-11.26a0.94,0.94 0 1 1 1.88,0l0,11.26a0.94,0.94 0 0 1 -0.88,0.94z"></path>
            <path id="svg_3" d="m23.08441,24.65442a2.8,2.8 0 1 1 2.8,-2.8a2.81,2.81 0 0 1 -2.8,2.8zm0,-3.73a0.92,0.92 0 1 0 0.92,0.92a0.92,0.92 0 0 0 -0.92,-0.91l0,-0.01z"></path>
            <path id="svg_4" d="m28.98441,6.21442l-11.83,0a0.94,0.94 0 0 1 0,-1.88l11.83,0a0.94,0.94 0 0 1 0,1.88z"></path>
            <path id="svg_5" d="m27.67441,2.83442l-9.21,0a0.94,0.94 0 0 1 0,-1.88l9.21,0a0.94,0.94 0 0 1 0,1.88z"></path>
            <path id="svg_6" d="m25.08441,36.96442l-4.09,0a0.94,0.94 0 0 1 -0.91,-0.86l0,-0.43a20.69,20.69 0 0 0 -6,-13.26a0.94,0.94 0 0 1 -0.19,-0.28l0,-0.09a0.94,0.94 0 0 1 0,-0.64l3.64,-12.79a0.94,0.94 0 0 1 1.81,0.51l-3.5,12.31a22.56,22.56 0 0 1 6.11,13.65l2.37,0a22.55,22.55 0 0 1 6.06,-13.69l-3.49,-12.27a0.94,0.94 0 1 1 1.81,-0.51l3.64,12.79a0.94,0.94 0 0 1 0,0.6a1,1 0 0 1 -0.21,0.33a20.67,20.67 0 0 0 -6,13.32c0,0.09 0,0.44 0,0.44a0.94,0.94 0 0 1 -1.05,0.87z"></path>
        </g>
    </g>
</svg>