<svg xmlns="http://www.w3.org/2000/svg" width="161.12" height="55" viewBox="0 0 161.12 55">
    <defs>
        <style>
            .cls-1 {
            fill: #ff4b00;
            }

            .cls-1, .cls-2 {
            fill-rule: evenodd;
            }

            .cls-2 {
            fill: #fff;
            }
        </style>
    </defs>
    <path id="Shape_1_copy" data-name="Shape 1 copy" class="cls-1" d="M1321.26,4441.02s-1.43.01-4.09,0.01c-4.35,0-7.56,3.01-7.56,6.91s3.21,6.9,7.56,6.9c2.45,0,4.09.01,4.09,0.01a0.321,0.321,0,0,0,.31-0.35v-1.97a0.332,0.332,0,0,0-.4-0.35s-1.51.04-4,.04a4.3,4.3,0,1,1,0-8.57c2.53,0,4,.04,4,0.04a0.332,0.332,0,0,0,.4-0.35v-1.97a0.327,0.327,0,0,0-.31-0.35m77.15,2.63c2.53,0,4,.04,4,0.04a0.33,0.33,0,0,0,.4-0.34v-1.98a0.327,0.327,0,0,0-.31-0.35s-1.44.01-4.09,0.01c-4.35,0-7.56,3.01-7.56,6.91s3.21,6.9,7.56,6.9c2.45,0,4.09.01,4.09,0.01a0.327,0.327,0,0,0,.31-0.35v-1.97a0.332,0.332,0,0,0-.4-0.35s-1.51.04-4,.04a4.3,4.3,0,1,1,0-8.57m-47.64,5.29h-5.03v-5.37h5.03a2.7,2.7,0,0,1,0,5.37m0-8.01h-7.4a0.348,0.348,0,0,0-.35.35v13.27a0.354,0.354,0,0,0,.35.35h2.02a0.354,0.354,0,0,0,.35-0.35v-2.96h5.03a5.333,5.333,0,0,0,0-10.66m-12.92,0h-2.76a0.8,0.8,0,0,0-.72.42l-6.68,10.38v-10.45a0.348,0.348,0,0,0-.35-0.35h-2.02a0.348,0.348,0,0,0-.35.35v13.06a0.515,0.515,0,0,0,.56.56h2.76a0.843,0.843,0,0,0,.72-0.42l6.69-10.62v10.69a0.346,0.346,0,0,0,.34.35h2.02a0.348,0.348,0,0,0,.35-0.35v-13.06a0.515,0.515,0,0,0-.56-0.56m34.19,0h-2.76a0.813,0.813,0,0,0-.72.42l-6.68,10.38v-10.45a0.342,0.342,0,0,0-.35-0.35h-2.01a0.342,0.342,0,0,0-.35.35v13.06a0.511,0.511,0,0,0,.56.56h2.76a0.856,0.856,0,0,0,.72-0.42l6.68-10.62v10.69a0.348,0.348,0,0,0,.35.35h2.02a0.354,0.354,0,0,0,.35-0.35l-0.01-13.06a0.511,0.511,0,0,0-.56-0.56m17.75,0h-2.03a0.7,0.7,0,0,0-.68.39l-3.95,7.43-4.54-7.44a0.8,0.8,0,0,0-.75-0.38h-2.1a0.366,0.366,0,0,0-.35.6l6.22,10.08-1.47,2.76a0.343,0.343,0,0,0,.3.51h1.92a0.762,0.762,0,0,0,.8-0.4l6.94-13.04a0.344,0.344,0,0,0-.31-0.51" transform="translate(-1241.94 -4426.5)"></path>
    <path id="Shape_1_copy_2" data-name="Shape 1 copy 2" class="cls-2" d="M1311.76,4473.9a1.419,1.419,0,0,0,1.36-1.59,1.463,1.463,0,0,0-1.42-1.59,1.419,1.419,0,0,0-1.36,1.59,1.463,1.463,0,0,0,1.42,1.59m-0.06.82a2.267,2.267,0,0,1-2.32-2.41,2.32,2.32,0,0,1,2.38-2.41,2.274,2.274,0,0,1,2.33,2.41,2.328,2.328,0,0,1-2.39,2.41m4.48-.9s0.21,0.02.37,0.02a0.686,0.686,0,0,0,.82-0.67c0-.39-0.26-0.58-0.78-0.58-0.25,0-.41.01-0.41,0.01v1.22Zm-0.94-3.78h2.77v0.83h-1.83v0.91c0.15-.01.3-0.02,0.46-0.02,1.21,0,1.69.6,1.69,1.38a1.568,1.568,0,0,1-1.78,1.52,11.548,11.548,0,0,1-1.31-.08v-4.54Zm5.24,2.08s0.2,0.02.36,0.02a0.7,0.7,0,0,0,.8-0.72,0.624,0.624,0,0,0-.76-0.63c-0.26,0-.4.01-0.4,0.01v1.32Zm0,2.46h-0.93v-4.54a13.732,13.732,0,0,1,1.38-.08,1.4,1.4,0,0,1,1.66,1.41,1.593,1.593,0,0,1-1.75,1.59c-0.18,0-.36-0.01-0.36-0.01v1.63Zm3.98-1.85h1.02l-0.3-.8a2.7,2.7,0,0,1-.19-0.76h-0.02a3.482,3.482,0,0,1-.21.76Zm1.31,0.76h-1.61l-0.41,1.09h-0.97l1.78-4.54h0.84l1.8,4.54h-1.01Zm4.52-1.28a1.066,1.066,0,0,1,.69,1.06c0,0.91-.61,1.45-1.81,1.45a3.032,3.032,0,0,1-1.46-.36l0.36-.81a2.367,2.367,0,0,0,1.08.34c0.59,0,.85-0.23.85-0.62s-0.25-.62-0.85-0.62h-0.62v-0.82h0.63c0.52,0,.74-0.22.74-0.56s-0.22-.54-0.73-0.54a2.393,2.393,0,0,0-1.01.27l-0.35-.78a3.283,3.283,0,0,1,1.44-.32,1.344,1.344,0,0,1,1.61,1.29,1.118,1.118,0,0,1-.57.99v0.03Zm3.96,1.69a1.425,1.425,0,0,0,1.36-1.59,1.469,1.469,0,0,0-1.42-1.59,1.413,1.413,0,0,0-1.36,1.59,1.457,1.457,0,0,0,1.42,1.59m-0.06.82a2.274,2.274,0,0,1-2.33-2.41,2.328,2.328,0,0,1,2.39-2.41,2.272,2.272,0,0,1,2.32,2.41,2.32,2.32,0,0,1-2.38,2.41m4.47-2.88h0.4a0.545,0.545,0,0,0,.61-0.56,0.519,0.519,0,0,0-.63-0.53,3.4,3.4,0,0,0-.38.02v1.07Zm0,2s0.16,0.01.37,0.01a0.65,0.65,0,0,0,.79-0.64,0.636,0.636,0,0,0-.78-0.6h-0.38v1.23Zm-0.94.74v-4.54s0.62-.07,1.3-0.07c1.13,0,1.59.46,1.59,1.18a1.064,1.064,0,0,1-.6,1.01v0.02a1.082,1.082,0,0,1,.75,1.08c0,0.94-.67,1.4-1.82,1.4a9.27,9.27,0,0,1-1.22-.08m5.38-1.85h1.03l-0.3-.8a2.7,2.7,0,0,1-.19-0.76h-0.03a2.871,2.871,0,0,1-.21.76Zm1.32,0.76h-1.61l-0.41,1.09h-0.98l1.79-4.54h0.84l1.79,4.54h-1.01Zm1.61-2.61v-0.84h3.61v0.84h-1.34v3.7h-0.93v-3.7h-1.34Zm5.49,0.96h1.61v0.83h-1.61v1.09h1.8v0.82h-2.73v-4.54h2.69v0.84h-1.76v0.96Zm3.49-1.8h2.83v4.54h-0.93v-3.71h-1.02l-0.04,1.09c-0.06,1.56-.43,2.66-1.44,2.66a1.32,1.32,0,0,1-.28-0.02l-0.11-.77c0.62-.06.85-0.38,0.91-1.86Zm5.25,3.78s0.2,0.02.36,0.02a0.687,0.687,0,0,0,.79-0.71,0.608,0.608,0,0,0-.75-0.61c-0.26,0-.4.01-0.4,0.01v1.29Zm-0.94-3.78h0.94v1.66h0.44c1.2,0,1.67.6,1.67,1.39a1.628,1.628,0,0,1-1.85,1.57,8.229,8.229,0,0,1-1.2-.08v-4.54Zm5.1,4.54h-0.94v-4.54h0.94v1.78h1.82v-1.78h0.94v4.54h-0.94v-1.93h-1.82v1.93Zm7.66-4.54h0.94v4.54h-0.94v-4.54Zm-2.47,3.78s0.19,0.02.35,0.02a0.69,0.69,0,0,0,.8-0.71,0.616,0.616,0,0,0-.76-0.61c-0.25,0-.39.01-0.39,0.01v1.29Zm-0.94-3.78h0.94v1.66h0.44a1.392,1.392,0,0,1,1.67,1.39,1.628,1.628,0,0,1-1.85,1.57,8.229,8.229,0,0,1-1.2-.08v-4.54Zm8.64-1.48,0.5,0.64a2.106,2.106,0,0,1-1.45.54,1.939,1.939,0,0,1-1.4-.54l0.51-.64a1.14,1.14,0,0,0,.92.45,1.1,1.1,0,0,0,.92-0.45m-1.96,6.02h-0.84v-4.54h0.93v2.01a8.635,8.635,0,0,1-.08,1.18h0.04a5.51,5.51,0,0,1,.57-1.05l1.47-2.14h0.86v4.54h-0.94v-2.01a8.761,8.761,0,0,1,.08-1.17h-0.03a5.235,5.235,0,0,1-.58,1.05Zm6.34,0v-4.54h0.94v3.71h1.71v-3.71h0.93v3.71h0.52v1.82h-0.9v-0.99h-3.2Zm6.09-2.74h1.61v0.83h-1.61v1.09h1.79v0.82h-2.73v-4.54h2.69v0.84h-1.75v0.96Zm3.95,2.74h-0.94v-4.54h0.94v1.78h1.82v-1.78h0.94v4.54h-0.94v-1.93h-1.82v1.93Zm3.71-3.7v-0.84h3.61v0.84h-1.34v3.7h-0.93v-3.7h-1.34Zm5.5,1.24s0.19,0.02.35,0.02a0.7,0.7,0,0,0,.8-0.72,0.624,0.624,0,0,0-.76-0.63c-0.25,0-.39.01-0.39,0.01v1.32Zm0,2.46H1400v-4.54s0.7-.08,1.38-0.08a1.4,1.4,0,0,1,1.67,1.41,1.6,1.6,0,0,1-1.76,1.59c-0.17,0-.35-0.01-0.35-0.01v1.63Z" transform="translate(-1241.94 -4426.5)"></path>
    <path id="Shape_1_copy_3" data-name="Shape 1 copy 3" class="cls-2" d="M1278.39,4460.64a2.19,2.19,0,1,0-2.19,2.19,2.179,2.179,0,0,0,2.19-2.19m2.34,9.07a1.752,1.752,0,0,0-1.75-1.75,1.75,1.75,0,1,0,0,3.5,1.746,1.746,0,0,0,1.75-1.75m-10.5-43.22a2.968,2.968,0,0,0-2.95,2.98,2.945,2.945,0,0,0,5.89,0,2.966,2.966,0,0,0-2.94-2.98m-0.02,21.99a2.15,2.15,0,1,0-2.15-2.13,2.136,2.136,0,0,0,2.15,2.13m0.02,12.4a2.185,2.185,0,1,0,2.19,2.18,2.187,2.187,0,0,0-2.19-2.18m0-25.16a2.685,2.685,0,1,0,2.71,2.68,2.676,2.676,0,0,0-2.71-2.68m9.72,41.01a1.392,1.392,0,0,0-1.37,1.37,1.374,1.374,0,0,0,1.37,1.38,1.36,1.36,0,0,0,1.36-1.38,1.383,1.383,0,0,0-1.36-1.37m-9.7-24.39a2.355,2.355,0,1,0,0,4.71,2.355,2.355,0,0,0,0-4.71m23.5-5.64a1.727,1.727,0,0,0,1.68-1.73,1.7,1.7,0,1,0-1.68,1.73m-23.54,23.45a1.765,1.765,0,0,0,0,3.53,1.765,1.765,0,1,0,0-3.53m18.05-35.27a1.83,1.83,0,1,0,0,3.66,1.83,1.83,0,1,0,0-3.66m7.31,18.29a1.52,1.52,0,1,0,1.54,1.52,1.528,1.528,0,0,0-1.54-1.52m-15.59-24.05a2.14,2.14,0,1,0,2.14,2.14,2.133,2.133,0,0,0-2.14-2.14m13.71,33.88a1.39,1.39,0,1,0,1.39,1.4,1.385,1.385,0,0,0-1.39-1.4m-8.53-14.92a1.935,1.935,0,1,0-1.91-1.94,1.942,1.942,0,0,0,1.91,1.94m0.09,13.5a1.77,1.77,0,1,0,1.78,1.79,1.776,1.776,0,0,0-1.78-1.79m0.34-6.89a1.845,1.845,0,0,0,3.69,0,1.845,1.845,0,0,0-3.69,0m2.66,16.61a1.37,1.37,0,1,0,1.37,1.36,1.37,1.37,0,0,0-1.37-1.36m-35.9-30.93a3.52,3.52,0,1,0-3.54-3.55,3.54,3.54,0,0,0,3.54,3.55m8.19-5.64a3.355,3.355,0,1,0-3.37-3.33,3.353,3.353,0,0,0,3.37,3.33m9.7,43.66a1.56,1.56,0,1,0,1.53,1.55,1.571,1.571,0,0,0-1.53-1.55m-16.38-20.99a2.705,2.705,0,1,0-2.71-2.72,2.723,2.723,0,0,0,2.71,2.72m5.8-2.69a2.17,2.17,0,1,0,2.15-2.17,2.151,2.151,0,0,0-2.15,2.17m19.11-12.69a2.065,2.065,0,1,0-2.07-2.07,2.06,2.06,0,0,0,2.07,2.07m-30.92,12.67a2.95,2.95,0,1,0-2.95,2.95,2.953,2.953,0,0,0,2.95-2.95m28.35-3.79a2.18,2.18,0,1,0-2.19-2.18,2.181,2.181,0,0,0,2.19,2.18m-17.05-10.12a2.941,2.941,0,0,0,2.98,2.97,2.96,2.96,0,1,0,0-5.92,2.937,2.937,0,0,0-2.98,2.95m19.48,11.73a2.18,2.18,0,1,0,2.19,2.18,2.185,2.185,0,0,0-2.19-2.18m-16.91,15.02a1.915,1.915,0,1,0,1.91,1.93,1.908,1.908,0,0,0-1.91-1.93m-1.15,8.78a1.685,1.685,0,1,0,1.68,1.67,1.708,1.708,0,0,0-1.68-1.67m3.72-29.74a2.155,2.155,0,1,0,2.19,2.18,2.16,2.16,0,0,0-2.19-2.18m0,11.92a2.166,2.166,0,0,0-2.15,2.18,2.136,2.136,0,0,0,2.15,2.13,2.155,2.155,0,1,0,0-4.31m-17.45-16.84a3.365,3.365,0,1,0,3.35,3.37,3.384,3.384,0,0,0-3.35-3.37m0.01,20.54a2.155,2.155,0,0,0-2.17,2.14,2.16,2.16,0,1,0,2.17-2.14m5.49,8.51a1.84,1.84,0,1,0,1.88,1.83,1.839,1.839,0,0,0-1.88-1.83m3.41-9.37a2.085,2.085,0,1,0,0,4.17,2.085,2.085,0,0,0,0-4.17m0.42-17.54a2.98,2.98,0,1,0,2.98,2.97,2.99,2.99,0,0,0-2.98-2.97" transform="translate(-1241.94 -4426.5)"></path>
</svg>