<svg xmlns="http://www.w3.org/2000/svg" width="55" height="55" viewBox="0 0 55 55">
    <defs>
        <style>
            .cls-1 {
            fill: #ff4b00;
            }

            .cls-1, .cls-2 {
            fill-rule: evenodd;
            }

            .cls-2 {
            fill: #fff;
            }
        </style>
    </defs>
    <path id="Shape_1_copy_3" data-name="Shape 1 copy 3" class="cls-2" d="M1278.39,4460.64a2.19,2.19,0,1,0-2.19,2.19,2.179,2.179,0,0,0,2.19-2.19m2.34,9.07a1.752,1.752,0,0,0-1.75-1.75,1.75,1.75,0,1,0,0,3.5,1.746,1.746,0,0,0,1.75-1.75m-10.5-43.22a2.968,2.968,0,0,0-2.95,2.98,2.945,2.945,0,0,0,5.89,0,2.966,2.966,0,0,0-2.94-2.98m-0.02,21.99a2.15,2.15,0,1,0-2.15-2.13,2.136,2.136,0,0,0,2.15,2.13m0.02,12.4a2.185,2.185,0,1,0,2.19,2.18,2.187,2.187,0,0,0-2.19-2.18m0-25.16a2.685,2.685,0,1,0,2.71,2.68,2.676,2.676,0,0,0-2.71-2.68m9.72,41.01a1.392,1.392,0,0,0-1.37,1.37,1.374,1.374,0,0,0,1.37,1.38,1.36,1.36,0,0,0,1.36-1.38,1.383,1.383,0,0,0-1.36-1.37m-9.7-24.39a2.355,2.355,0,1,0,0,4.71,2.355,2.355,0,0,0,0-4.71m23.5-5.64a1.727,1.727,0,0,0,1.68-1.73,1.7,1.7,0,1,0-1.68,1.73m-23.54,23.45a1.765,1.765,0,0,0,0,3.53,1.765,1.765,0,1,0,0-3.53m18.05-35.27a1.83,1.83,0,1,0,0,3.66,1.83,1.83,0,1,0,0-3.66m7.31,18.29a1.52,1.52,0,1,0,1.54,1.52,1.528,1.528,0,0,0-1.54-1.52m-15.59-24.05a2.14,2.14,0,1,0,2.14,2.14,2.133,2.133,0,0,0-2.14-2.14m13.71,33.88a1.39,1.39,0,1,0,1.39,1.4,1.385,1.385,0,0,0-1.39-1.4m-8.53-14.92a1.935,1.935,0,1,0-1.91-1.94,1.942,1.942,0,0,0,1.91,1.94m0.09,13.5a1.77,1.77,0,1,0,1.78,1.79,1.776,1.776,0,0,0-1.78-1.79m0.34-6.89a1.845,1.845,0,0,0,3.69,0,1.845,1.845,0,0,0-3.69,0m2.66,16.61a1.37,1.37,0,1,0,1.37,1.36,1.37,1.37,0,0,0-1.37-1.36m-35.9-30.93a3.52,3.52,0,1,0-3.54-3.55,3.54,3.54,0,0,0,3.54,3.55m8.19-5.64a3.355,3.355,0,1,0-3.37-3.33,3.353,3.353,0,0,0,3.37,3.33m9.7,43.66a1.56,1.56,0,1,0,1.53,1.55,1.571,1.571,0,0,0-1.53-1.55m-16.38-20.99a2.705,2.705,0,1,0-2.71-2.72,2.723,2.723,0,0,0,2.71,2.72m5.8-2.69a2.17,2.17,0,1,0,2.15-2.17,2.151,2.151,0,0,0-2.15,2.17m19.11-12.69a2.065,2.065,0,1,0-2.07-2.07,2.06,2.06,0,0,0,2.07,2.07m-30.92,12.67a2.95,2.95,0,1,0-2.95,2.95,2.953,2.953,0,0,0,2.95-2.95m28.35-3.79a2.18,2.18,0,1,0-2.19-2.18,2.181,2.181,0,0,0,2.19,2.18m-17.05-10.12a2.941,2.941,0,0,0,2.98,2.97,2.96,2.96,0,1,0,0-5.92,2.937,2.937,0,0,0-2.98,2.95m19.48,11.73a2.18,2.18,0,1,0,2.19,2.18,2.185,2.185,0,0,0-2.19-2.18m-16.91,15.02a1.915,1.915,0,1,0,1.91,1.93,1.908,1.908,0,0,0-1.91-1.93m-1.15,8.78a1.685,1.685,0,1,0,1.68,1.67,1.708,1.708,0,0,0-1.68-1.67m3.72-29.74a2.155,2.155,0,1,0,2.19,2.18,2.16,2.16,0,0,0-2.19-2.18m0,11.92a2.166,2.166,0,0,0-2.15,2.18,2.136,2.136,0,0,0,2.15,2.13,2.155,2.155,0,1,0,0-4.31m-17.45-16.84a3.365,3.365,0,1,0,3.35,3.37,3.384,3.384,0,0,0-3.35-3.37m0.01,20.54a2.155,2.155,0,0,0-2.17,2.14,2.16,2.16,0,1,0,2.17-2.14m5.49,8.51a1.84,1.84,0,1,0,1.88,1.83,1.839,1.839,0,0,0-1.88-1.83m3.41-9.37a2.085,2.085,0,1,0,0,4.17,2.085,2.085,0,0,0,0-4.17m0.42-17.54a2.98,2.98,0,1,0,2.98,2.97,2.99,2.99,0,0,0-2.98-2.97" transform="translate(-1241.94 -4426.5)"></path>
</svg>