<svg xmlns="http://www.w3.org/2000/svg" width="25px" height="26px" viewBox="0 0 37.788 36.609">
    <g>
        <g>
            <path d="M18.894,36.609c-0.138,0-0.276-0.029-0.406-0.087L0.579,28.425C0.226,28.266,0,27.914,0,27.527
			V0.986c0-0.324,0.159-0.627,0.425-0.811C0.69-0.009,1.031-0.051,1.334,0.065l17.909,6.788c0.383,0.145,0.636,0.512,0.636,0.921
			v27.85c0,0.334-0.169,0.646-0.451,0.828C19.266,36.556,19.081,36.609,18.894,36.609z M1.97,26.892l15.94,7.205V8.454L1.97,2.413
			V26.892z"></path>
            <path d="M18.894,36.609c-0.187,0-0.372-0.053-0.534-0.158c-0.281-0.182-0.451-0.493-0.451-0.828V7.774
			c0-0.544,0.441-0.985,0.985-0.985c0.544,0,0.985,0.441,0.985,0.985v26.323l15.939-7.205V2.413L24.021,6.885
			c-0.508,0.192-1.077-0.063-1.271-0.572c-0.192-0.509,0.063-1.077,0.572-1.271l13.132-4.977c0.304-0.114,0.644-0.072,0.909,0.11
			c0.267,0.184,0.425,0.487,0.425,0.811v26.541c0,0.387-0.226,0.739-0.579,0.898L19.3,36.521
			C19.17,36.58,19.032,36.609,18.894,36.609z"></path>
            <path d="M13.595,14.085c-0.125,0-0.253-0.024-0.376-0.075l-7.754-3.212
			c-0.503-0.209-0.741-0.784-0.533-1.288c0.21-0.501,0.786-0.74,1.287-0.533l7.753,3.211c0.502,0.209,0.741,0.785,0.533,1.288
			C14.348,13.855,13.981,14.085,13.595,14.085z"></path>
            <path d="M13.595,20.062c-0.125,0-0.253-0.024-0.376-0.076l-7.754-3.212
			c-0.503-0.208-0.741-0.785-0.533-1.288c0.21-0.5,0.786-0.742,1.287-0.533l7.753,3.212c0.502,0.208,0.741,0.784,0.533,1.288
			C14.348,19.832,13.981,20.062,13.595,20.062z"></path>
            <path d="M13.595,26.648c-0.125,0-0.253-0.024-0.376-0.076l-7.754-3.212
			c-0.503-0.208-0.741-0.784-0.533-1.288c0.21-0.501,0.786-0.74,1.287-0.533l7.753,3.212c0.502,0.208,0.741,0.784,0.533,1.288
			C14.348,26.419,13.981,26.648,13.595,26.648z"></path>
            <path d="M23.975,14.085c-0.387,0-0.753-0.23-0.911-0.608c-0.208-0.503,0.03-1.079,0.533-1.288l7.754-3.211
			c0.504-0.208,1.079,0.032,1.287,0.533c0.208,0.503-0.03,1.079-0.533,1.288l-7.753,3.212C24.228,14.06,24.1,14.085,23.975,14.085z"></path>
            <path d="M23.975,20.062c-0.387,0-0.753-0.229-0.911-0.608c-0.208-0.503,0.03-1.079,0.533-1.288l7.754-3.212
			c0.504-0.209,1.079,0.033,1.287,0.533c0.208,0.503-0.03,1.079-0.533,1.288l-7.753,3.212C24.228,20.037,24.1,20.062,23.975,20.062z
			"></path>
            <path d="M23.975,26.648c-0.387,0-0.753-0.23-0.911-0.608c-0.208-0.503,0.03-1.079,0.533-1.288l7.754-3.212
			c0.504-0.207,1.079,0.032,1.287,0.533c0.208,0.503-0.03,1.079-0.533,1.288l-7.753,3.212C24.228,26.624,24.1,26.648,23.975,26.648z
			"></path>
        </g>
    </g>
</svg>