<svg xmlns="http://www.w3.org/2000/svg" width="31px" height="26px" viewBox="0 0 46.224 37.967">
    <g>
        <path d="M29.465,37.967H16.576c-0.545,0-0.986-0.441-0.986-0.985c0-0.544,0.441-0.985,0.986-0.985h12.889
		c0.545,0,0.986,0.441,0.986,0.985C30.451,37.525,30.01,37.967,29.465,37.967z"></path>
        <path d="M29.465,8.166H16.576c-0.545,0-0.986-0.441-0.986-0.985c0-0.544,0.441-0.984,0.986-0.984h12.889
		c0.545,0,0.986,0.44,0.986,0.984C30.451,7.725,30.01,8.166,29.465,8.166z"></path>
        <path d="M23.019,32.25c-0.203,0-0.405-0.062-0.579-0.187c-6.675-4.839-10.824-13.778-10.824-23.331V7.938
		c0-2.433,0.262-4.844,0.777-7.166C12.494,0.32,12.894,0,13.355,0h19.329c0.462,0,0.862,0.32,0.962,0.772
		c0.515,2.322,0.777,4.733,0.777,7.166v0.794c0,9.553-4.149,18.492-10.826,23.331C23.425,32.188,23.222,32.25,23.019,32.25z
		 M14.156,1.971c-0.377,1.943-0.568,3.947-0.568,5.968v0.794c0,8.649,3.597,16.733,9.431,21.3c5.836-4.565,9.433-12.649,9.433-21.3
		V7.938c0-2.02-0.191-4.024-0.568-5.968H14.156z"></path>
        <g>
            <g>
                <path d="M37.898,21.38c-0.761,0-1.499-0.279-2.056-0.781c-0.613-0.545-0.981-1.297-1.033-2.113
				c-0.05-0.825,0.231-1.642,0.77-2.248l0.819-0.924c0.358-0.407,0.981-0.446,1.391-0.084c0.407,0.36,0.444,0.984,0.083,1.391
				l-0.82,0.926c-0.194,0.218-0.294,0.516-0.277,0.817c0.02,0.292,0.154,0.566,0.382,0.767c0.217,0.196,0.525,0.305,0.806,0.276
				c0.302-0.021,0.579-0.154,0.774-0.375c0.197-0.224,0.294-0.514,0.278-0.816c-0.033-0.543,0.383-1.01,0.926-1.04
				c0.533-0.027,1.01,0.383,1.039,0.926c0.049,0.825-0.224,1.618-0.767,2.233c-0.537,0.61-1.29,0.979-2.118,1.039
				C38.03,21.378,37.963,21.38,37.898,21.38z"></path>
                <path d="M37.039,17.024c-0.264,0-0.527-0.106-0.722-0.314c-0.37-0.398-0.347-1.021,0.052-1.392L43.77,8.44
				c0.415-0.635,0.57-1.4,0.438-2.169c-0.142-0.781-0.582-1.468-1.237-1.926c-0.653-0.456-1.44-0.63-2.241-0.491
				c-0.788,0.142-1.474,0.579-1.932,1.234c-0.46,0.657-0.635,1.454-0.491,2.243c0.098,0.535-0.258,1.048-0.793,1.146
				c-0.525,0.095-1.046-0.257-1.146-0.793C36.13,6.374,36.42,5.051,37.184,3.96c0.758-1.084,1.894-1.812,3.203-2.045
				c1.318-0.231,2.63,0.059,3.713,0.816c1.084,0.757,1.811,1.892,2.049,3.197c0.228,1.325-0.065,2.645-0.82,3.723
				c-0.04,0.057-0.086,0.108-0.136,0.156l-7.483,6.953C37.52,16.938,37.278,17.024,37.039,17.024z"></path>
            </g>
            <g>
                <path d="M8.331,21.381c-0.065,0-0.129-0.003-0.194-0.007c-0.836-0.06-1.59-0.429-2.127-1.039
				c-0.543-0.615-0.815-1.408-0.767-2.233c0.031-0.543,0.497-0.95,1.039-0.926c0.543,0.03,0.959,0.497,0.926,1.04
				c-0.016,0.303,0.082,0.593,0.278,0.816c0.195,0.221,0.472,0.354,0.783,0.376c0.266,0.02,0.58-0.081,0.794-0.273
				c0.231-0.205,0.366-0.479,0.385-0.775c0.018-0.298-0.083-0.596-0.275-0.812L8.353,16.62c-0.361-0.406-0.324-1.03,0.083-1.391
				c0.407-0.362,1.03-0.323,1.391,0.084l0.82,0.925c0.537,0.604,0.818,1.422,0.768,2.243c-0.052,0.82-0.42,1.572-1.036,2.121
				C9.825,21.102,9.087,21.381,8.331,21.381z"></path>
                <path d="M9.186,17.024c-0.24,0-0.481-0.087-0.67-0.264L1.032,9.808c-0.05-0.048-0.096-0.1-0.136-0.156
				C0.141,8.573-0.152,7.254,0.075,5.938c0.24-1.315,0.966-2.45,2.051-3.207c1.082-0.758,2.405-1.046,3.709-0.817
				C7.147,2.148,8.283,2.876,9.043,3.96c0.762,1.091,1.052,2.414,0.814,3.725C9.757,8.22,9.233,8.566,8.711,8.477
				C8.175,8.38,7.82,7.867,7.918,7.332c0.144-0.789-0.031-1.586-0.49-2.243C6.969,4.434,6.282,3.996,5.492,3.853
				C4.695,3.716,3.905,3.891,3.255,4.346C2.598,4.804,2.158,5.49,2.015,6.281C1.885,7.04,2.04,7.806,2.455,8.44l7.402,6.878
				c0.399,0.37,0.422,0.993,0.052,1.392C9.713,16.919,9.449,17.024,9.186,17.024z"></path>
            </g>
        </g>
    </g>
</svg>